<svg xmlns="http://www.w3.org/2000/svg"
 viewBox="0 0 430 681.7"
 preserveAspectRatio="xMidYMid meet"
 role="img" aria-labelledby="logoTitle" fill="currentColor">

  <title id="logoTitle">Democracy Dashboard</title>

  <g transform="translate(0.000000,1024.000000) scale(0.100000,-0.100000) translate(70,-427.4)" stroke="none">
<path d="M3205 5906 c-372 -87 -621 -420 -591 -791 9 -109 30 -185 77 -280
141 -287 451 -454 767 -416 489 60 791 550 622 1013 -81 222 -275 399 -507
464 -80 22 -290 28 -368 10z m353 -185 c35 -12 92 -40 127 -61 70 -45 162
-137 149 -150 -11 -10 -176 -60 -199 -60 -12 0 -15 -5 -11 -16 4 -9 11 -36 17
-61 11 -40 10 -46 -11 -68 -13 -14 -25 -23 -28 -20 -2 2 -6 24 -9 47 -9 103
-12 110 -41 104 -15 -3 -57 -8 -94 -12 l-68 -6 0 -48 c0 -46 -17 -80 -41 -80
-5 0 -9 29 -9 64 l0 65 -57 6 c-117 13 -115 13 -125 -20 -4 -16 -11 -69 -15
-117 l-6 -88 49 0 49 -1 -30 -24 c-16 -14 -38 -25 -47 -25 -12 0 -18 -8 -18
-23 0 -13 -11 -34 -25 -47 l-25 -23 0 46 0 47 -130 0 c-97 0 -130 -3 -130 -12
1 -40 33 -159 56 -201 25 -49 25 -50 6 -69 -19 -19 -19 -19 -45 36 -78 163
-76 368 3 527 31 62 63 112 90 139 77 76 209 149 306 169 80 16 239 7 312 -18z
m350 -377 c-6 -112 -15 -127 -57 -96 l-29 21 -128 -130 c-71 -71 -139 -132
-152 -136 -20 -5 -36 7 -93 63 l-70 69 -107 -110 c-59 -61 -147 -152 -195
-204 l-89 -93 -34 33 -34 33 142 144 c244 246 283 282 307 282 14 0 50 -23 88
-57 l64 -57 117 117 c115 115 116 116 97 137 -12 14 -15 24 -8 31 12 12 129
47 162 48 l24 1 -5 -96z m2 -216 c0 -13 -9 -60 -20 -105 -75 -315 -341 -492
-640 -429 -64 14 -170 56 -197 78 -11 9 -11 14 3 29 16 18 17 18 43 -2 l26
-21 3 53 c2 33 10 61 20 72 16 18 17 18 24 -19 4 -22 7 -58 7 -82 1 -37 5 -44
29 -53 15 -6 53 -13 85 -16 l58 -6 -2 188 c-2 165 0 190 14 199 9 6 20 7 24 2
4 -4 10 -93 12 -197 l3 -189 23 0 c13 0 52 9 88 20 75 23 73 18 83 182 6 96
10 110 31 130 l25 23 -4 -133 c-1 -72 0 -132 4 -132 11 0 73 80 106 136 33 57
77 177 87 241 6 41 8 43 58 52 4 0 7 -9 7 -21z"/>
<path d="M3303 5679 c-33 -21 -81 -89 -107 -151 -17 -43 -20 -42 87 -53 l57
-6 0 115 c0 64 -1 116 -2 116 -2 0 -17 -10 -35 -21z"/>
<path d="M3390 5585 l0 -115 33 0 c72 0 137 13 137 27 0 28 -53 116 -95 159
-70 69 -75 64 -75 -71z"/>
<path d="M3133 5641 c-62 -30 -163 -99 -163 -112 0 -4 26 -13 58 -19 31 -6 65
-13 75 -15 15 -3 24 9 44 53 13 31 33 68 44 83 34 48 27 50 -58 10z"/>
<path d="M3540 5640 c11 -16 32 -54 45 -85 19 -42 30 -55 46 -55 26 0 100 20
112 30 12 11 -70 75 -139 110 -76 39 -92 39 -64 0z"/>
<path d="M2905 5446 c-34 -59 -62 -144 -67 -202 l-3 -49 125 0 125 0 6 85 c4
47 10 104 14 128 7 40 6 42 -16 42 -13 0 -54 9 -92 19 l-67 20 -25 -43z"/>
</g>
</svg>
